<?xml version="1.0" encoding="UTF-8" standalone="no"?>
<!DOCTYPE svg PUBLIC "-//W3C//DTD SVG 1.1//EN" "http://www.w3.org/Graphics/SVG/1.1/DTD/svg11.dtd">
<svg width="100%" height="100%" viewBox="0 0 2800 420" version="1.1" xmlns="http://www.w3.org/2000/svg" xmlns:xlink="http://www.w3.org/1999/xlink" xml:space="preserve" xmlns:serif="http://www.serif.com/" style="fill-rule:evenodd;clip-rule:evenodd;stroke-linejoin:round;stroke-miterlimit:2;">
    <g transform="matrix(2.07726,0,0,1,-4.53764,-40.17)">
        <rect x="0" y="38.34" width="1352.3" height="423.66" style="fill:url(#_Linear1);"/>
    </g>
    <g transform="matrix(1.55887,0,0,1.55887,-30,-144.552)">
        <clipPath id="_clip2">
            <rect x="16.334" y="91.555" width="1801.99" height="271.773"/>
        </clipPath>
        <g clip-path="url(#_clip2)">
            <path d="M437.991,420L418.537,420C411.524,411.719 405.162,403.775 401.975,395.04L386.348,340.617C385.794,338.262 386.867,336.221 387.703,334.952C389.529,332.536 392.652,330.834 395.516,330.749C396.671,330.749 398.251,331.088 399.206,332.573L404.897,351.378C405.851,354.531 406.724,357.708 407.572,361.331C408.279,364.374 408.868,367.069 409.634,369.629C412.71,380.933 417.625,391.719 425.036,403.591C429.992,409.487 434.315,414.96 437.991,420ZM489.217,420L475.634,420C472.083,402.102 467.32,385.495 461.357,370.365L461.357,366.826C462.159,365.812 463.738,365.208 465.694,365.208C465.812,365.204 465.93,365.202 466.047,365.202C469.291,365.202 472.381,366.631 473.496,368.578C480.367,385.312 485.612,402.512 489.217,420ZM387.173,420L374.345,420C372.527,417.881 370.514,415.875 368.299,413.972C353.51,400.071 342.361,379.561 333.322,349.366C332.309,346.117 331.908,343.956 332.449,340.586C333.098,336.214 334.771,333.907 336.033,333.871C337.259,333.871 340.017,335.9 341.95,343.666C355.077,377.134 366.826,397.824 381.604,412.873C383.654,415.223 385.491,417.56 387.173,420ZM154.565,420L148.358,420C148.505,419.62 148.688,419.259 148.904,418.92C149.672,417.736 150.731,417.036 151.639,417.023L153.323,417.917C153.743,418.6 154.156,419.294 154.565,420ZM29.509,420L20.056,420C18.152,417.093 18.727,415.69 19.356,414.067C19.874,412.811 20.358,411.374 19.874,409.598L20.109,406.965L21.382,406.76C22.208,406.76 22.785,407.183 23.399,408.402L29.509,420ZM88.65,420L78.749,420L63.137,391.723C61.805,388.643 62.524,383.112 64.233,380.309C64.787,379.247 65.341,379.017 65.589,379.017C65.635,379.017 66.437,379.487 67.25,381.36L88.65,420ZM42.247,405.204C44.305,405.204 46.162,407.026 47.321,410.241C48.388,413.416 49.568,416.663 50.867,420L41.044,420C40.021,417.48 39.058,415.021 38.151,412.62C37.233,411.098 37.233,409.588 37.928,408.176C38.894,406.473 40.698,405.277 42.206,405.204L42.247,405.204ZM215.738,420L195.304,420C194.012,419.421 192.815,418.806 191.633,418.08C185.08,414.154 179.93,408.985 175.854,402.306C174.497,399.601 174.25,396.594 175.347,394.769C175.854,393.754 176.76,393.26 177.833,393.26C178.799,393.26 179.871,393.67 180.991,394.443C186.683,400.023 192.021,404.83 196.878,409.13C200.507,411.908 205.209,414.879 211.878,418.539C213.203,419.039 214.489,419.525 215.738,420ZM107.22,420L96.879,420C89.304,404.344 80.139,388.588 68.627,371.628C67.368,368.68 67.202,365.806 68.251,364.067C68.723,363.148 69.654,362.594 70.619,362.594C71.633,362.594 72.741,363.148 73.6,364.152C88.409,385.546 99.507,403.953 107.22,420ZM68.693,420L59.862,420C57.501,414.985 55.245,410.091 53.085,405.386C51.799,402.149 51.576,399.008 52.86,397.112C53.261,396.424 53.956,395.663 55.159,395.663C56.173,395.663 57.48,396.351 58.446,397.693C61.541,404.711 64.916,412.219 68.693,420ZM336.425,420L320.286,420C316.272,416.246 311.658,412.27 306.405,407.759L304.697,406.346C302.14,404.208 299.217,401.539 296.447,397.866C289.341,388.591 282.895,376.682 277.297,362.225C276.143,358.106 276.578,353.528 278.711,350.75C279.573,349.482 280.527,348.842 281.646,348.818C281.663,348.817 281.678,348.817 281.695,348.817C283.94,348.817 286.897,352.132 289.341,357.659C301.785,385.089 316.741,405.211 333.664,417.554C334.645,418.351 335.562,419.163 336.425,420ZM274.549,420L253.584,420C241.947,412.795 231.936,401.213 223.053,384.826C221.864,382.737 221.628,381.904 222.147,379.862C222.948,376.143 225.929,372.446 228.097,372.35C229.713,372.796 230.172,373.811 230.855,375.163C234.804,382.737 238.021,387.99 241.945,392.931C250.09,402.056 260.881,410.935 274.549,420ZM111.902,391.064L112.49,390.92L113.811,389.821C114.917,388.13 114.824,385.823 113.811,383.093C106.857,363.43 98.526,347.125 87.825,331.761C86.4,329.732 86.553,327.027 87.459,325.191L88.273,323.948C113.433,360.918 126.09,390.992 127.14,415.934C127.089,417.472 126.845,418.864 126.46,420L119.164,420C119.151,419.985 119.138,419.97 119.125,419.955C115.342,414.218 110.216,405.45 104.04,394.7L102.873,392.804C95.214,379.494 86.4,364.397 79.187,354.819C77.714,351.207 78.338,348.115 79.246,346.702L80.754,345.518L82.675,346.919C92.527,360.278 100.352,373.37 106.457,386.861C107.753,389.555 109.52,391.125 111.429,391.064L111.902,391.064ZM0,415.102C2.865,411.712 4.956,407.06 5.644,400.917C1.12,373.174 0.059,349.017 2.487,326.951C2.545,325.26 2.133,323.932 1.12,322.857C0.793,322.5 0.414,322.188 0,321.925L0,415.102ZM138.136,355.227C137.37,356.458 137.524,358.415 138.338,360.167L150.875,374.986C153.033,377.136 154.034,379.419 153.905,381.762C153.751,386.484 149.52,390.289 145.443,393.924L145.042,394.383C142.297,396.702 139.551,399.13 138.526,401.341C137.689,403.068 137.735,404.892 138.632,406.293C139.044,407.005 139.951,407.923 141.412,407.826L143.628,407.138L160.091,392.959C164.971,388.912 165.831,383.791 162.602,377.474L142.626,354.127L140.717,353.644C139.657,353.644 138.667,354.248 138.136,355.227ZM423.29,352.205C423.09,352.387 422.759,352.979 422.971,354.597C425.953,375.347 434.308,392.172 448.308,406.001L450.124,406.593L450.536,406.472C450.665,406.001 451.043,404.709 450.418,401.074L443.642,384.696C442.24,381.399 441.356,379.02 441.062,375.553L440.107,365.927C439.859,363.789 439.481,362.713 438.434,360.794C435.723,356.349 432.458,353.655 428.063,352.435C426.695,352.049 425.6,351.844 424.633,351.844L423.29,352.205ZM195.153,390.399L195.554,392.331C200.339,398.093 206.125,402.537 212.572,405.654L215.212,406.101L216.213,405.835C216.213,405.497 216.213,404.869 215.954,403.794C215,401.318 213.384,398.805 211.346,396.341C208.848,393.552 206.538,391.981 203.108,390.858C200.998,390.085 198.948,389.687 197.251,389.687C195.943,389.687 195.366,390.085 195.153,390.399ZM386.207,398.47L386.16,398.47C385.016,398.385 384.333,397.818 383.226,396.707L382.931,396.477C370.899,385.341 361.966,367.538 356.64,343.6C356.273,341.969 356.486,340.64 357.134,339.783C357.734,339.045 358.761,338.683 360.116,338.683C360.206,338.679 360.297,338.677 360.389,338.677C362.997,338.677 366.239,340.474 368.448,342.959C370.203,344.94 370.734,346.74 371.441,349.953L374.128,364.192C375.836,371.283 379.207,379.327 384.44,388.916C385.795,391.126 386.655,392.733 387.057,394.931C387.374,396.996 387.209,397.866 387.057,398.143L386.207,398.47ZM35.571,307.483C34.204,309.597 33.957,314.464 34.782,319.031C41.369,338.548 43.738,354.563 42.535,371.014C41.18,376.993 36.973,380.93 32.035,381.002C27.934,381.051 24.446,378.43 22.784,373.961C18.094,355.578 17.799,339.285 18.047,324.634C17.434,321.41 15.125,320.31 13.097,320.31C11.896,320.347 10.658,320.938 9.986,321.771C9.126,322.654 8.784,323.837 8.866,325.492C8.784,347.594 8.737,372.548 19.507,392.525C22.737,396.342 26.661,398.383 30.845,398.237C38.847,398.166 47.202,390.399 53.047,377.56C57.962,359.914 53.46,337.98 38.894,308.643L36.679,307.302L35.571,307.483ZM245.878,367.232L245.938,368.354C254.694,382.112 262.553,391.823 273.879,397.559L276.531,398.163L277.497,397.873C277.745,397.596 277.556,396.424 275.73,394.697C267.033,386.834 262.39,378.536 256.744,367.763C255.342,365.202 252.385,364.948 251.205,364.948C248.601,365.069 246.433,366.168 245.878,367.232ZM306.03,352.09L305.831,353.805C310.803,370.944 318.393,384.109 329.234,394.001L332.003,395.535L332.723,395.088C332.9,394.448 332.9,393.156 331.862,391.126C324.898,381.476 320.065,369.627 316.908,355.231C316.189,351.571 312.807,350.388 310.191,350.388C308.093,350.52 306.561,351.354 306.03,352.09ZM125.339,364.677L125.079,367.213L136.57,385.342L138.455,386.369L140.53,385.136C141.048,384.196 141.095,383.084 140.718,381.96L130.665,364.012L128.662,362.828C127.389,362.853 126.082,363.614 125.339,364.677ZM175.211,316.137C174.563,317.189 174.186,318.904 174.846,319.93C190.613,336.26 198.416,345.548 200.737,350.801C202.304,355.065 201.951,359.136 199.735,362.529C197.249,366.165 192.818,368.46 188.104,368.532C185.428,368.581 183.048,367.868 180.691,366.503C172.842,360.645 164.511,352.408 155.047,341.706L153.48,341.248C152.55,341.248 151.63,341.876 151.03,342.963C150.264,344.448 150.31,346.418 151.03,347.915C160.704,361.49 171.535,371.406 183.272,377.265C185.677,378.279 188.586,378.774 191.569,378.701C200.042,378.533 208.29,374.45 212.215,368.46C215.043,364.087 215.515,358.954 213.488,353.87C204.579,340.257 193.148,327.068 179.23,314.64L177.626,314.096C176.755,314.096 175.801,314.821 175.211,316.137ZM25.795,314.471C25.206,314.509 24.134,315.511 24.134,317.274C24.64,335.355 26.314,348.291 30.038,361.975L32.348,363.073C33.244,363.073 34.068,360.646 34.068,359.136C31.452,345.126 29.625,332.178 28.459,318.53C27.701,315.398 26.528,314.47 25.847,314.47C25.829,314.47 25.812,314.47 25.795,314.471ZM158.276,327.978C158.276,329.729 159.641,331.263 161.905,333.69C168.751,341.348 173.735,346.313 179.876,352.363C181.751,353.801 183.459,354.006 184.272,354.006C186.181,353.957 187.759,352.93 188.455,351.578C189.138,349.839 188.656,347.737 186.853,345.612C180.501,337.604 173.477,330.876 165.227,325.031C164.227,324.342 163.106,323.991 162.245,323.991C159.818,324.016 158.276,326.142 158.276,327.978ZM207.526,270.682C206.937,272.554 207.502,274.801 209.235,276.612C226.581,290.828 241.253,306.94 252.707,324.719C254.982,328.765 255.336,332.739 253.486,336.097C251.706,339.394 247.876,341.35 243.209,341.471C240.027,341.496 236.598,340.541 233.228,338.681C218.673,329.237 204.956,315.31 191.746,301.916L188.847,299.005C188.246,299.222 187.504,299.874 186.856,301.24C185.888,303.22 185.417,306.228 186.679,308.136C209.646,334.152 225.262,348.717 232.945,351.508C239.427,352.933 245.153,353.73 249.95,353.645C256.903,353.537 261.735,351.665 264.304,348.174C267.333,343.863 267.521,336.664 264.823,326.978C260.474,316.192 241.984,295.334 214.137,269.764C212.911,269.028 211.78,268.616 210.766,268.616C209.235,268.665 208.257,269.474 207.526,270.682ZM292.521,107.223C292.273,107.997 292.686,109.989 295.525,112.356C360.107,160.222 411.63,228.897 453.146,322.78C453.817,326.609 453.406,329.254 452.086,330.993C450.978,332.092 449.682,332.769 448.056,332.769C445.121,332.793 441.149,331.175 435.823,327.756C422.329,318.952 410.015,306.499 398.041,289.602C352.505,213.981 298.048,167.01 250.461,128.879C249.012,127.575 248.081,127.007 247.22,127.056L245.936,127.466C245.418,129.532 246.36,134.291 249.802,137.515C294.584,168.713 343.702,226.108 399.856,313.057C419.301,340.197 444.532,353.181 477.022,352.661C480.099,352.589 483.41,352.383 486.663,352.093C491.883,350.801 492.496,349.363 492.496,349.34C492.637,348.772 491.883,347.48 489.537,345.668C474.995,334.399 465.037,320.002 459.994,303.129C413.738,202.834 347.426,141.356 300.075,107.622C298.26,106.559 296.551,105.991 294.984,105.991C293.723,106.027 292.826,106.487 292.521,107.223ZM124.125,296.001C123.113,298.102 122.712,301.303 124.279,303.634L132.245,314.395C134.108,318.49 133.6,324.022 131.019,328.261C129.005,331.945 125.635,334.034 122.099,334.143C119.837,334.191 117.55,333.286 115.122,331.487L104.74,319.722L102.124,318.901C101.169,318.937 100.309,319.457 99.744,320.495C99.048,321.872 98.695,324.396 100.096,327.199L117.326,347.598C119.117,349.483 121.309,350.353 123.926,350.316C130.572,350.232 139.187,343.456 143.983,334.506C147.589,327.754 148.213,321.364 145.645,316.933C138.455,306.135 132.834,298.912 127.955,294.769L126.483,293.815C125.728,293.815 124.844,294.708 124.125,296.001ZM63.585,287.44C63.478,293.382 65.341,297.864 67.203,302.622L67.521,303.105C69.478,307.84 71.54,312.888 71.363,319.786C70.538,324.302 67.568,324.87 66.295,324.893C65.341,324.893 64.233,324.689 63.384,324.242C58.694,323.843 55.819,314.64 55.075,310.641C54.723,308.903 57.48,306.366 58.247,307.489C59.389,309.313 60.709,310.811 61.416,310.364C64.28,310.702 59.248,297.864 59.248,297.864C58.141,296.499 56.291,296.499 55.017,296.499C53.615,296.546 51.941,297.247 49.632,298.829C47.204,299.88 45.791,301.56 47.204,306.113C49.384,318.844 54.829,330.679 63.266,341.248C64.327,342.105 65.589,342.6 66.649,342.6C68.499,342.516 70.538,341.15 72.565,338.687C81.309,319.676 79.247,302.247 66.343,285.689C65.188,284.493 64.469,284.335 64.469,284.335C64.28,284.468 63.785,285.242 63.585,287.44ZM234.276,214.776C233.273,216.757 233.38,220.428 234.724,222.639C261.027,247.375 286.635,272.341 310.558,305.797C313.504,309.867 314.235,314.226 312.349,318.153C310.558,322.041 306.067,324.723 301.366,324.867C298.042,324.892 294.944,323.624 292.515,321.365C275.18,306.026 258.812,288.44 242.996,271.374C236.102,263.97 228.902,256.144 222.266,249.222L220.429,248.389L218.519,250.25C217.317,252.737 217.117,256.856 218.566,258.945L269.795,315.132C277.666,324.3 286.199,330.834 295.132,334.506C299.221,335.303 303.145,335.786 306.775,335.653C314.235,335.592 319.55,333.286 322.543,329.179C325.654,324.759 326.007,318.153 323.58,310.229C302.048,271.845 272.906,244.404 235.902,214.668L235.301,214.268L234.276,214.776ZM195.161,289.425L236.961,329.923L239.883,330.95L241.993,329.972L242.252,328.426C227.792,307.832 212.212,292.602 193.286,280.476C192.732,283.061 193.145,287.155 195.161,289.425ZM246.628,157.115C245.674,160.715 247.983,168.637 251.365,170.969C287.781,204.425 326.458,241.891 364.098,298.911C366.349,303.127 366.715,306.327 365.394,308.634C364.546,310.059 363.096,310.857 361.423,310.857C358.04,310.881 354.069,308.127 350.841,303.634C320.33,257.231 280.12,219.161 244.66,187.057L243.246,186.115L242.303,187.383C240.582,190.68 240.736,197.709 243.164,201.213C266.827,220.67 292.553,251.276 315.239,278.306L316.087,279.212C332.21,298.525 346.233,315.121 355.354,322.729C360.197,325.641 365.288,327.199 370.002,327.065C374.763,327.065 378.911,325.145 381.222,321.992C383.437,318.95 384.037,315.121 383.096,310.881C354.47,254.489 311.043,204.752 250.258,158.661C248.938,157.369 248.09,156.838 247.477,156.838L246.628,157.115ZM111.987,311.501C111.339,312.709 111.269,314.255 111.716,315.197L121.262,324.521L122.276,324.786C123.548,324.786 124.739,323.941 125.293,322.781C125.799,321.61 125.635,320.499 125.033,319.388L115.912,310.232L114.568,309.749C113.59,309.749 112.541,310.437 111.987,311.501ZM265.032,119.889C264.901,120.313 265.62,122.027 270.192,124.709C310.332,157.187 360.381,204.774 425.916,311.411C428.203,313.513 430.995,314.769 433.092,314.769C434.107,314.769 434.931,314.37 435.309,313.753C436.381,311.822 435.556,307.679 433.092,302.606C394.817,230.911 341.95,169.518 276.203,120.324C274.023,119.153 271.395,118.561 269.098,118.561C266.528,118.561 265.161,119.381 265.032,119.889ZM80.659,276.515C80.211,277.083 80.505,277.796 81.106,278.967C82.155,281.032 84.076,283.206 86.256,285.815C90.852,291.19 96.568,297.808 89.733,304.826C87.87,306.118 87.823,306.675 89.461,309.222C90.994,311.625 92.479,312.689 94.612,312.689C96.261,312.593 98.088,311.976 99.998,310.853L108.953,299.247L109.92,296.577C109.731,296.408 109.567,295.949 108.27,295.949C102.672,295.501 98.83,290.223 95.225,285.441C92.196,281.443 89.084,277.372 85.22,275.814L82.98,275.416C81.86,275.416 80.906,275.814 80.659,276.515ZM154.659,257.485C153.694,259.852 154.035,263.234 155.497,264.792L167.034,277.378C169.214,280.916 169.167,285.784 166.798,289.999C164.724,294.033 161.142,296.618 157.525,296.666C155.662,296.702 153.906,296.195 152.279,294.975L139.752,285.543L137.879,284.492C136.771,284.492 135.604,285.784 135.05,287.643C134.614,289.057 134.272,292.004 136.123,293.466L158.832,310.701C160.399,311.644 161.813,312.054 163.356,312.054C166.126,312.005 169.355,310.254 172.631,307.162L175.589,302.198C181.6,292.415 185.936,285.337 178.995,274.949C173.055,267.546 166.798,260.445 156.734,255.613C155.815,255.71 155.155,256.35 154.659,257.485ZM31.904,218.379L29.572,219.635C28.511,220.867 27.804,222.739 27.933,224.708C29.088,246.05 29.465,269.904 23.538,284.989C18.599,293.371 13.674,298.118 9.514,298.178C7.322,298.178 3.574,297.043 2.772,288.746C2.231,268.358 4.952,251.268 7.358,238.802C7.358,237.51 7.157,236.508 5.142,235.252C4.151,235.385 2.938,236.291 2.125,238.006C1.362,240.212 0.654,242.442 0,244.695L0,308.765C2.19,310.392 4.875,311.218 7.97,311.174C16.526,310.994 27.556,303.638 31.952,290.002C37.066,264.952 36.477,242.884 35.216,224.672C34.91,220.802 33.626,218.379 31.93,218.378C31.921,218.378 31.913,218.378 31.904,218.379ZM221.86,228.039C220.787,229.862 220.527,232.617 221.152,233.824C243.755,259.72 268.079,284.154 293.238,306.268L295.018,306.945L296.55,306.027C297.092,305.206 296.845,303.974 296.197,302.814C275.278,275.53 250.519,250.033 222.566,227.012L221.86,228.039ZM46.7,213.158C45.487,214.595 44.91,216.793 45.098,219.269L45.487,230.176C45.617,235.695 45.794,241.203 45.994,246.71C46.1,252.037 46.242,257.327 46.359,262.533C47.727,271.857 44.756,276.024 41.988,279.793L41.764,280.154C40.42,281.99 39.159,283.826 38.393,286C36.978,293.356 37.887,295.131 38.181,295.507L38.699,295.542C39.159,295.542 40.02,295.397 41.268,294.769C51.439,284.78 56.034,275.529 55.327,265.601L52.439,216.661C51.84,213.738 50.471,211.95 49.081,211.95L46.7,213.158ZM107.356,246.25C107.096,246.709 106.305,248.254 107.237,249.777L118.08,261.48C119.647,264.138 119.741,267.338 118.28,269.911C116.878,272.592 114.144,274.391 111.528,274.44C110.03,274.464 108.77,274.029 107.603,273.112L96.725,264.524L94.509,264.005C93.048,264.005 91.988,265.141 91.552,266.166C91.093,267.495 91.174,268.764 91.893,269.742C96.773,276.192 102.063,281.724 108.157,286.651C110.278,288.318 112.033,289.055 113.754,289.018C115.345,289.018 116.878,288.318 118.327,287.098C121.155,283.378 124.031,280.504 127.141,277.303C131.938,272.749 136.417,268.414 138.786,261.505C139.187,258.631 138.891,257.603 138.632,257.326C138.338,256.964 137.831,256.758 135.403,256.758C126.082,256.215 119.741,250.526 113.095,244.475L111.068,243.714C109.523,243.714 108.109,244.765 107.356,246.25ZM144.119,273.35C143.624,274.666 144.025,276.128 145.287,277.371L153.322,283.507L155.467,284.293C156.822,284.268 157.53,282.819 157.824,282.252C158.225,280.899 158.118,278.966 156.669,277.638L148.774,271.49L147.395,271.115C146.028,271.14 144.626,272.082 144.119,273.35ZM14.797,228.56L12.605,280.943C12.805,282.804 13.854,282.899 14.42,282.899C15.222,282.899 16.34,282.259 16.777,280.291C20.666,266.811 21.385,249.722 19.004,228.126C18.497,225.759 17.579,224.672 17.248,224.672C16.635,224.672 15.28,226.109 14.797,228.56ZM31.916,11.413C105.622,11.453 176.148,30.957 241.742,69.334C254.978,78.417 268.6,82.681 283.614,82.403C285.17,82.403 286.831,82.318 288.339,82.174C292.523,82.403 295.434,83.418 296.13,84.964C296.812,86.256 295.847,88.769 293.714,91.835C279.477,103.226 264.37,109.011 247.624,109.264C238.372,109.434 228.591,107.803 218.528,104.433C216.653,104.132 216.053,103.334 216.324,101.413L218.775,88.502C219.233,86.739 220.295,85.905 220.943,85.905C221.544,85.905 222.262,86.618 222.722,88.188L228.591,97.948C232.068,101.438 236.004,103.056 241.389,103.116C250.429,102.731 255.143,100.992 256.745,97.5C257.959,95.097 257.441,92.319 255.247,89.01L254.978,88.769C191.435,44.731 124.674,24.55 50.831,19.368C45.244,18.945 39.648,18.45 34.073,18.534C25.565,18.691 19.248,20.032 14.463,22.617C8.476,25.902 4.859,27.038 4.353,32.653C3.892,37.956 6.32,43.174 11.235,47.34L56.488,68.924C73.763,76.292 85.03,87.621 91.983,104.687C100.679,129.085 126.96,203.618 103.12,236.507C93.563,251.979 83.062,262.257 70.983,267.849L70.37,267.849C68.355,267.91 66.752,266.702 65.809,264.491C64.536,261.726 64.465,257.196 67.258,253.972C108.104,220.346 102.671,195.224 93.703,153.652L92.631,149.001C83.533,106.112 70.028,91.196 48.581,78.719C43.123,75.337 37.444,72.184 31.81,69.262C28.888,67.849 25.647,66.435 21.381,64.685C13.163,61.377 5.676,58.23 0,51.922L0,19.376C1.677,17.782 3.635,16.35 5.861,15.116C12,11.686 17.964,11.637 24.845,11.469C27.135,11.432 29.415,11.413 31.699,11.413L31.916,11.413ZM168.594,202.737C167.852,204.32 168.041,207.484 169.82,209.995C179.129,217.291 188.546,224.925 193.437,231.217C196.96,235.287 196.96,240.964 195.451,244.599C194.073,247.74 191.668,249.442 188.852,249.563C186.801,249.587 184.81,248.766 182.854,247.172L164.516,235.613C163.562,235.77 162.82,236.603 162.242,237.908C161.394,240.131 161.394,243.246 163.303,245.106L185.976,262.028C188.546,263.718 190.963,264.564 193.143,264.564C195.051,264.528 197.007,263.876 198.775,262.571C202.828,259.347 206.329,254.298 209.05,247.74C211.773,238.114 209.392,230.915 201.709,225.601L171.022,202.58L169.619,202L168.594,202.737ZM126.595,193.817C125.546,198.189 126.04,200.907 128.21,202.694L138.521,211.294C142.575,215.956 142.763,221.959 141.09,225.715C139.887,228.65 137.519,230.377 134.797,230.522C132.382,230.522 129.882,229.23 127.349,226.585C126.595,225.461 125.935,224.966 125.334,224.966C125.18,224.966 124.427,225.027 123.024,226.513C117.638,231.452 118.781,234.713 120.361,236.875C127.302,244.17 133.041,247.673 137.838,247.649C141.55,247.54 144.86,245.125 147.948,240.366C151.261,233.361 153.653,224.241 154.701,213.299C154.949,211.258 154.666,209.736 153.994,208.855C153.322,208.238 151.413,207.598 150.223,207.15L149.516,206.909L147.537,206.124C140.301,202.743 134.102,198.104 126.902,192.718L126.595,193.817ZM58.904,193.267C58.644,194.608 59.045,195.997 60.165,196.891L70.936,199.198C73.765,200.213 76.415,202.156 77.17,204.32C78.289,207.121 77.17,214.428 74.083,219.586C66.339,229.514 62.474,229.985 64.054,236.362C64.289,239.321 65.444,239.321 66.046,239.321L67.861,239.007C79.055,231.192 85.643,221.675 87.753,210.72C88.506,204.32 87.599,199.524 84.89,196.13C81.767,192.362 76.133,190.26 67.671,189.668L65.444,189.463C61.815,189.548 59.445,191.42 58.904,193.267ZM167.074,222.847L167.132,226.012L180.143,236.834L181.499,237.003C183.113,236.979 184.481,235.989 185.081,234.419C185.647,232.97 185.269,231.218 184.126,230.179L169.159,221.398L167.074,222.847ZM0,179.171C4.446,193.098 4.363,203.295 0.018,210.897C0.012,210.903 0.006,210.908 0,210.914L0,225.677C1.774,224.69 3.49,223.619 5.144,222.468C10.849,218.544 13.312,214.062 13.099,208.012C11.484,191.645 7.196,176.841 0,163.261L0,179.171ZM65.56,206.495C66.816,206.495 69.668,206.587 70.023,212.788C70.023,214.02 69.658,215.578 65.345,215.662C64.131,215.662 62.764,215.554 61.315,215.312C59.134,214.334 57.638,212.788 57.638,211.267C57.638,209.853 58.816,208.428 60.596,207.534C62.528,206.906 64.237,206.52 65.451,206.495L65.56,206.495ZM154.461,132.371C153.754,134.231 154.708,137.517 157.16,139.461C162.239,143.048 169.652,147.457 178.29,152.505C194.953,162.3 212.125,172.386 215.518,179.318C218.37,183.835 218.676,190.261 216.248,195.057C214.527,198.281 211.817,200.069 208.447,200.164C206.538,200.213 204.416,199.585 202.143,198.305L164.819,176.227L163.972,175.767L163.571,175.924C163.112,178.05 164.819,184.162 169.215,188.534C178.985,196.481 187.506,202.459 196.155,207.303L198.772,208.704C202.837,211.035 209.106,214.634 213.585,214.634C215.706,214.598 217.675,213.898 219.277,212.703C227.95,203.486 229.906,186.288 225.417,178.811C208.6,161.769 186.374,146.683 155.616,131.284L154.461,132.371ZM0,127.788C14.706,141.841 26.423,155.691 32.948,182.714C33.349,186.397 33.715,190.48 30.179,195.324L28.518,196.858C26.715,198.451 24.841,200.372 23.392,202.256C22.107,203.766 21.859,205.722 22.743,207.534C23.733,209.733 25.949,211.038 28.376,211.012L29.578,210.964L29.872,210.892L48.858,195.927C50.178,194.756 51.145,192.606 51.145,190.166C51.145,188.052 50.437,186.446 49.919,185.938C40.868,179.972 34.658,168.39 27.457,152.373C21.049,140.004 11.244,129.133 0,123.133L0,127.788ZM114.972,136.226C114.76,136.71 114.466,137.954 115.409,139.029L123.611,145.563C136.267,149.585 139.756,158.184 138.895,164.381C138.224,169.465 134.617,173.209 130.375,173.27C127.547,173.306 124.529,171.893 120.818,168.753C120.606,170.033 120.641,172.014 121.702,174.586C128.418,186.29 138.224,191.424 145.036,191.291C148.217,191.266 150.633,190.082 151.882,188.054C153.897,185.046 153.698,180.469 151.411,174.683C144.387,160.383 143.469,148.667 143.563,139.102C143.563,136.71 143.056,135.961 142.361,135.345C141.193,135.526 139.249,136.71 138.531,137.169C135.926,138.364 133.451,138.956 130.776,139.029C126.086,139.102 121.949,137.265 116.669,134.681L114.972,136.226ZM0,143.219C7.616,156.347 13.591,170.804 19.252,187.251C21.667,192.203 24.543,185.585 24.024,183.701C19.493,167.996 6.788,145.749 0,139.267L0,143.219ZM162.249,160.226C171.534,168.753 183.46,177.196 198.947,186.06L201.551,186.531C203.966,186.495 206.689,185.324 206.193,184.659C200.997,176.604 160.54,155.709 160.54,155.709C160.74,157.025 161.258,159.006 162.249,160.226ZM55.369,140.867C55.335,142.148 56.878,143.91 57.515,144.056C69.264,144.442 73.695,151.411 73.6,166.774C72.076,173.721 69.29,173.719 66.861,173.718C66.718,173.718 66.575,173.718 66.436,173.719C64.325,173.768 62.075,173.163 59.659,171.883C57.479,171.376 56.218,172.669 55.923,173.2C55.664,173.526 55.558,174.311 56.076,175.556C56.36,177.307 64.786,182.004 72.28,181.872C74.52,181.872 75.875,181.402 76.947,180.459C81.555,176.968 82.828,170.326 80.495,159.636C78.456,145.71 71.032,138.814 58.139,138.415C56.489,138.451 55.369,139.719 55.369,140.867ZM0,95.899C18.364,105.011 30.917,118.123 35.575,139.334C35.975,152.922 38.698,161.763 43.53,165.422L44.709,166.159L44.98,163.14C45.792,129.08 35.209,106.325 13.314,95.189C9.496,92.509 5.049,89.949 0,87.52L0,95.899ZM59.656,153.721C57.488,154.65 56.121,155.532 55.861,156.366C55.367,157.453 56.073,159.023 57.229,160.532C61.011,163.443 62.921,163.709 63.629,163.709C63.923,163.709 64.995,163.709 65.997,162.272C66.432,157.368 65.242,155.266 64.24,154.456C63.768,154.164 63.029,153.713 60.282,153.713C60.084,153.713 59.876,153.716 59.656,153.721ZM148.275,93.883C176.004,105.297 202.497,116.965 222.389,133.451C225.016,136.072 225.877,139.478 224.711,142.425C223.661,145.082 221.152,146.688 218.017,146.749C216.049,146.797 213.739,146.217 210.911,144.767C188.755,127.291 166.943,117.762 150.372,111.408L149.56,112.616C149.359,114.464 150.313,117.521 153.59,118.728C173.341,127.291 194.589,140.034 218.323,157.848C221.859,160.252 224.675,161.291 227.173,161.291C229.908,161.194 232.277,159.636 234.28,156.556C238.922,143.645 233.231,131.627 216.945,120.031C193.623,107.145 163.925,91.577 140.297,85.634L139.343,85.307C140.297,87.023 143.019,90.393 148.275,93.883ZM38.185,96.855C38.534,96.851 38.88,96.848 39.225,96.848C51.734,96.849 61.498,100.165 68.048,115.48C69.224,119.273 68.919,122.57 67.257,124.925C65.854,126.942 63.474,128.053 60.752,128.149C58.69,128.149 56.592,127.425 54.919,126.193L55.154,123.875L55.331,123.875C59.137,123.875 60.245,123.174 61.505,121.133C62.272,119.84 63.003,117.751 61.423,114.175C55.531,101.107 46.905,101.264 39.645,101.409C35.179,101.373 34.107,98.825 34.107,98.655C34.107,98.317 34.731,97.362 36.475,96.855L38.185,96.855ZM117.331,92.22C115.304,92.643 112.853,92.812 110.213,92.933C107.656,92.933 104.592,92.8 100.963,92.522L99.595,93.283C99.784,94.756 101.41,97.088 104.333,97.74C121.315,98.006 127.347,103.634 127.347,108.791C127.148,113.2 122.765,116.546 116.671,116.606C114.468,116.643 112.346,116.376 110.378,115.748L109.318,115.893C109.364,116.352 109.565,117.004 110.213,118.152C115.764,123.177 123.023,126.196 129.068,126.148C133.099,126.038 135.927,124.626 137.377,122.053C139.652,117.862 137.93,110.386 132.887,101.484L132.074,99.744L131.944,99.262L131.944,98.658C131.944,97.752 132.239,95.723 123.766,88.609L123.282,88.21C122.765,90.203 120.701,91.58 117.331,92.22ZM45.093,109.377C44.988,109.594 44.847,111.237 47.721,114.944C48.77,116.02 50.173,117.324 51.694,117.372C52.99,117.458 53.45,115.827 53.496,114.764C53.709,111.878 51.694,108.797 46.697,108.29C45.447,108.749 45.153,109.268 45.093,109.377ZM171.809,63.436C173.234,66.129 174.755,69.222 173.729,76.058C173.045,78.739 173.339,80.659 174.755,82.265C183.228,89.006 195.366,96.795 201.659,96.675C202.838,96.638 203.827,96.288 204.417,95.528C207.08,92.737 208.258,89.307 207.634,85.781C206.691,81.42 203.05,77.434 197.57,75.14L197.427,75.115C197.475,78.63 196.368,80.78 195.366,81.988C193.928,83.449 191.972,84.306 189.91,84.379C185.974,84.416 181.601,81.625 181.142,76.818C179.728,70.84 176.758,66.407 171.809,63.243L171.726,63.218L171.809,63.436ZM0,77.272C8.261,78.727 18.246,81.375 20.771,87.484C21.985,88.681 24.342,89.416 27.123,89.381C30.576,89.332 32.509,88.124 32.662,87.798L31.813,86.784C26.122,79.307 11.576,73.339 0,72.703L0,77.272ZM91.985,74.073C96.652,74.013 99.481,72.793 100.588,70.498C101.661,68.312 100.918,65.727 98.385,62.406C87.46,49.047 71.633,42.767 50.138,43.129C45.79,43.165 41.464,43.492 37.233,43.951C31.648,43.781 26.615,39.964 26.545,38.08C26.545,37.718 27.558,37.186 29.125,36.957C33.251,36.583 37.387,36.353 41.17,36.317C42.051,36.302 42.935,36.294 43.827,36.294C67.283,36.294 94.223,41.984 118.372,78.602C118.69,79.713 118.69,80.897 118.277,81.682C117.866,82.262 116.616,83.119 113.045,83.337C102.674,82.056 95.12,79.218 90.017,74.629L91.785,74.073L91.985,74.073ZM105.755,43.668L106.25,44.2C120.285,61.919 135.876,72.728 154.709,78.236C156.464,78.635 158.079,78.804 159.328,78.78C160.896,78.743 162.015,78.417 162.51,77.826C163.112,77.149 163.3,76.171 163.182,75.083C161.803,63.066 156.017,55.879 145.576,53.041C147.249,57.147 147.402,60.312 146.035,62.463C145.186,63.875 143.666,64.648 141.864,64.685C139.755,64.685 137.208,63.501 134.568,61.363C125.435,51.471 117.01,45.758 108.807,43.898C107.804,43.739 107.101,43.664 106.163,43.664C106.032,43.664 105.896,43.666 105.755,43.668ZM73.113,56.847C70.378,56.932 67.372,57.246 65.239,57.524C64.179,57.79 63.849,58.188 63.849,58.454C63.731,58.804 64.285,60.205 66.747,61.461C70.837,62.875 74.349,63.502 77.342,63.406C79.546,63.382 81.502,63.019 83.069,62.355C84.695,61.364 84.732,60.845 84.732,60.749C84.732,60.749 84.648,59.77 81.915,58.188C79.887,57.282 77.161,56.845 73.551,56.845C73.407,56.845 73.26,56.846 73.113,56.847Z" style="fill:url(#_Linear3);fill-rule:nonzero;"/>
        </g>
    </g>
    <defs>
        <linearGradient id="_Linear1" x1="0" y1="0" x2="1" y2="0" gradientUnits="userSpaceOnUse" gradientTransform="matrix(1426.97,5.68434e-13,-5.68434e-13,1426.97,-69.33,250.17)"><stop offset="0" style="stop-color:rgb(29,91,79);stop-opacity:1"/><stop offset="0.65" style="stop-color:rgb(29,91,79);stop-opacity:1"/><stop offset="0.77" style="stop-color:rgb(28,88,76);stop-opacity:1"/><stop offset="0.86" style="stop-color:rgb(24,77,67);stop-opacity:1"/><stop offset="0.96" style="stop-color:rgb(18,60,52);stop-opacity:1"/><stop offset="1" style="stop-color:rgb(14,49,43);stop-opacity:1"/></linearGradient>
        <linearGradient id="_Linear3" x1="0" y1="0" x2="1" y2="0" gradientUnits="userSpaceOnUse" gradientTransform="matrix(492.512,0,0,408.587,0,215.707)"><stop offset="0" style="stop-color:rgb(15,51,44);stop-opacity:1"/><stop offset="1" style="stop-color:rgb(29,91,79);stop-opacity:1"/></linearGradient>
    </defs>
</svg>
